<svg xmlns="http://www.w3.org/2000/svg" xmlns:xlink="http://www.w3.org/1999/xlink" width="1000" zoomAndPan="magnify" viewBox="0 0 750 675.000002" height="900" preserveAspectRatio="xMidYMid meet" version="1.0"><defs><clipPath id="722789d588"><path d="M 0.554688 0 L 396 0 L 396 674 L 0.554688 674 Z M 0.554688 0 " clip-rule="nonzero"/></clipPath><clipPath id="d06b81f559"><path d="M 384.699219 313.199219 L 28.292969 5.066406 C 23.328125 0.773438 16.316406 -0.226562 10.347656 2.503906 C 4.378906 5.234375 0.554688 11.195312 0.554688 17.761719 L 0.554688 656.601562 C 0.554688 663.167969 4.378906 669.128906 10.347656 671.859375 C 16.316406 674.589844 23.328125 673.589844 28.292969 669.296875 L 384.699219 361.164062 C 391.664062 355.140625 395.667969 346.390625 395.667969 337.179688 C 395.667969 327.972656 391.664062 319.21875 384.699219 313.199219 " clip-rule="nonzero"/></clipPath><clipPath id="286af10426"><path d="M 354 0 L 749.4375 0 L 749.4375 674 L 354 674 Z M 354 0 " clip-rule="nonzero"/></clipPath><clipPath id="6ebeaa703f"><path d="M 365.289062 360.800781 L 721.699219 668.933594 C 726.664062 673.226562 733.675781 674.226562 739.644531 671.496094 C 745.609375 668.765625 749.4375 662.804688 749.4375 656.238281 L 749.4375 17.398438 C 749.4375 10.832031 745.609375 4.871094 739.644531 2.140625 C 733.675781 -0.589844 726.664062 0.410156 721.699219 4.703125 L 365.289062 312.835938 C 358.328125 318.855469 354.324219 327.609375 354.324219 336.816406 C 354.324219 346.027344 358.328125 354.78125 365.289062 360.800781 " clip-rule="nonzero"/></clipPath></defs><g clip-path="url(#722789d588)"><g clip-path="url(#d06b81f559)"><path stroke-linecap="butt" transform="matrix(0.000000000000000046, -0.748509, 0.748232, 0.000000000000000046, 0.552803, 693.278562)" fill="none" stroke-linejoin="miter" d="M 507.781724 513.405829 L 919.443693 37.074309 C 925.179051 30.438871 926.51504 21.067815 922.867164 13.090672 C 919.219289 5.113529 911.255543 0.00251845 902.482899 0.00251845 L 49.000058 0.00251845 C 40.227413 0.00251845 32.263668 5.113529 28.615792 13.090672 C 24.967917 21.067815 26.303906 30.438871 32.039264 37.074309 L 443.701233 513.405829 C 451.748477 522.714237 463.438379 528.065396 475.744088 528.065396 C 488.044578 528.065396 499.739698 522.714237 507.781724 513.405829 " stroke="#000000" stroke-width="144" stroke-opacity="1" stroke-miterlimit="4"/></g></g><g clip-path="url(#286af10426)"><g clip-path="url(#6ebeaa703f)"><path stroke-linecap="butt" transform="matrix(0.000000000000000046, 0.748509, -0.748232, 0.000000000000000046, 749.437975, -19.279087)" fill="none" stroke-linejoin="miter" d="M 507.782426 513.409166 L 919.444395 37.072425 C 925.179753 30.436987 926.515742 21.065932 922.867867 13.088788 C 919.219991 5.116865 911.256246 0.000634744 902.483601 0.000634744 L 49.00076 0.000634744 C 40.228116 0.000634744 32.26437 5.116865 28.616495 13.088788 C 24.968619 21.065932 26.304608 30.436987 32.039966 37.072425 L 443.701935 513.409166 C 451.743961 522.712353 463.439081 528.063513 475.74479 528.063513 C 488.04528 528.063513 499.7404 522.712353 507.782426 513.409166 " stroke="#000000" stroke-width="144" stroke-opacity="1" stroke-miterlimit="4"/></g></g></svg>